<svg width="16.000000" height="16.000000" viewBox="0 0 16 16" fill="none" xmlns="http://www.w3.org/2000/svg"
     >
    <path id="instagram"
          d="M12.65 -0.9L2.34 -0.9C0.55 -0.9 -0.91 0.55 -0.91 2.34L-0.91 5.77L-0.91 12.65C-0.91 14.44 0.55 15.9 2.34 15.9L12.65 15.9C14.44 15.9 15.9 14.44 15.9 12.65L15.9 5.77L15.9 2.34C15.89 0.55 14.43 -0.9 12.65 -0.9ZM13.58 1.03L13.95 1.03L13.95 1.4L13.95 3.88L11.11 3.88L11.1 1.04L13.58 1.03ZM5.09 5.77C5.63 5.03 6.5 4.53 7.49 4.53C8.47 4.53 9.35 5.02 9.88 5.77C10.24 6.25 10.44 6.85 10.44 7.49C10.44 9.12 9.12 10.45 7.48 10.45C5.85 10.45 4.54 9.12 4.54 7.49C4.54 6.85 4.75 6.25 5.09 5.77ZM14.25 12.64C14.25 13.53 13.53 14.25 12.65 14.25L2.34 14.25C1.46 14.25 0.74 13.53 0.74 12.64L0.74 5.77L3.24 5.77C3.03 6.3 2.9 6.88 2.9 7.49C2.9 10.02 4.96 12.08 7.49 12.08C10.03 12.08 12.09 10.02 12.09 7.49C12.09 6.88 11.96 6.3 11.75 5.77L14.25 5.77L14.25 12.64Z"
          fill="#7572D5" fill-opacity="1.000000" fill-rule="nonzero"/>
    <path id="koss"
          d="M8.54 11.83C8.07 11.83 7.63 11.9 7.18 11.96C7.33 11.48 7.47 10.99 7.71 10.55C7.95 9.91 8.32 9.35 8.69 8.79C9 8.18 9.54 7.77 9.94 7.25C10.36 6.75 10.93 6.41 11.38 5.99C11.83 5.56 12.41 5.34 12.87 5.03C13.35 4.75 13.77 4.45 14.22 4.3L15.35 3.84L16.33 3.43L15.32 -0.61L14.08 -0.31C13.68 -0.21 13.2 -0.09 12.65 0.05C12.08 0.15 11.48 0.44 10.81 0.7C10.14 0.99 9.38 1.19 8.67 1.67C7.95 2.12 7.12 2.5 6.39 3.11C5.69 3.74 4.83 4.28 4.21 5.08C3.52 5.82 2.84 6.61 2.31 7.5C1.7 8.35 1.29 9.28 0.85 10.21C0.45 11.13 0.13 12.07 -0.13 12.99C-0.62 14.83 -0.84 16.57 -0.93 18.07C-1 19.56 -0.95 20.81 -0.87 21.71C-0.84 22.13 -0.78 22.54 -0.74 22.83L-0.68 23.18L-0.63 23.17C-0.26 24.9 0.59 26.49 1.83 27.75C3.07 29.02 4.64 29.91 6.36 30.32C8.08 30.73 9.88 30.65 11.56 30.08C13.23 29.51 14.71 28.47 15.83 27.1C16.94 25.72 17.64 24.06 17.85 22.3C18.06 20.54 17.76 18.76 17 17.16C16.23 15.57 15.04 14.22 13.54 13.27C12.04 12.33 10.31 11.83 8.54 11.83ZM31.45 11.83C30.99 11.83 30.54 11.9 30.1 11.96C30.24 11.48 30.39 10.99 30.63 10.55C30.87 9.91 31.24 9.35 31.61 8.79C31.91 8.18 32.46 7.77 32.86 7.25C33.28 6.75 33.85 6.41 34.3 5.99C34.74 5.56 35.32 5.34 35.79 5.03C36.27 4.75 36.69 4.45 37.14 4.3L38.26 3.84L39.25 3.43L38.24 -0.61L37 -0.31C36.6 -0.21 36.11 -0.09 35.56 0.05C35 0.15 34.4 0.44 33.72 0.7C33.06 0.99 32.3 1.19 31.58 1.67C30.87 2.12 30.04 2.5 29.31 3.11C28.6 3.74 27.75 4.28 27.12 5.08C26.43 5.82 25.76 6.61 25.23 7.5C24.62 8.35 24.2 9.28 23.77 10.21C23.37 11.13 23.05 12.07 22.79 12.99C22.3 14.83 22.08 16.57 21.99 18.07C21.92 19.56 21.96 20.81 22.05 21.71C22.08 22.13 22.14 22.54 22.18 22.83L22.23 23.18L22.29 23.17C22.66 24.9 23.51 26.49 24.75 27.75C25.98 29.02 27.55 29.91 29.28 30.32C31 30.73 32.8 30.65 34.48 30.08C36.15 29.51 37.63 28.47 38.74 27.1C39.86 25.72 40.56 24.06 40.76 22.3C40.97 20.54 40.68 18.76 39.91 17.16C39.15 15.57 37.95 14.22 36.45 13.27C34.96 12.33 33.22 11.83 31.45 11.83Z"
          fill="#7572D5" fill-opacity="1.000000" fill-rule="nonzero"/>
    <path id="telegram"
          d="M15.9 0.76L13.37 12.72C13.17 13.56 12.68 13.77 11.97 13.37L8.1 10.53L6.24 12.32C6.03 12.53 5.86 12.7 5.46 12.7L5.74 8.76L12.9 2.29C13.21 2.02 12.83 1.86 12.42 2.14L3.57 7.71L-0.24 6.52C-1.07 6.26 -1.09 5.69 -0.07 5.29L14.83 -0.45C15.52 -0.71 16.13 -0.29 15.9 0.76Z"
          fill="#1F1F20" fill-opacity="1.000000" fill-rule="nonzero"/>
    <path id="vk"
          d="M15.16 6.99C14.8 6.53 14.38 6.13 13.98 5.73C13.84 5.59 13.69 5.45 13.55 5.3C13.14 4.89 13.12 4.73 13.45 4.26C13.67 3.94 13.91 3.61 14.14 3.3C14.35 3.01 14.56 2.72 14.77 2.42L14.81 2.36C15.21 1.8 15.61 1.21 15.83 0.51C15.89 0.32 15.95 0.04 15.81 -0.18C15.68 -0.41 15.41 -0.48 15.23 -0.52C15.14 -0.53 15.05 -0.53 14.96 -0.53L12.38 -0.54L12.35 -0.54C11.96 -0.54 11.7 -0.35 11.55 0.05C11.41 0.42 11.25 0.82 11.07 1.2C10.71 1.96 10.25 2.83 9.59 3.56L9.56 3.59C9.48 3.67 9.4 3.77 9.33 3.77C9.32 3.77 9.31 3.77 9.3 3.77C9.16 3.71 9.07 3.37 9.07 3.21C9.07 3.21 9.07 3.2 9.07 3.2L9.07 0.11C9.07 0.09 9.07 0.08 9.07 0.07C9 -0.43 8.86 -0.74 8.31 -0.85C8.29 -0.86 8.28 -0.86 8.26 -0.86L5.58 -0.86C5.14 -0.86 4.9 -0.67 4.67 -0.4C4.61 -0.32 4.48 -0.17 4.54 0.02C4.61 0.2 4.82 0.24 4.88 0.26C5.22 0.32 5.41 0.54 5.46 0.91C5.56 1.56 5.57 2.25 5.5 3.08C5.48 3.31 5.44 3.49 5.38 3.65C5.37 3.68 5.31 3.8 5.26 3.8C5.24 3.8 5.2 3.79 5.11 3.73C4.9 3.58 4.75 3.37 4.57 3.11C3.96 2.22 3.46 1.25 3.02 0.12C2.85 -0.29 2.55 -0.52 2.16 -0.53C1.73 -0.53 1.34 -0.54 0.97 -0.54C0.56 -0.54 0.19 -0.53 -0.18 -0.53C-0.49 -0.52 -0.71 -0.42 -0.82 -0.23C-0.94 -0.05 -0.93 0.2 -0.8 0.5C0.23 2.88 1.17 4.61 2.24 6.11C2.99 7.16 3.74 7.89 4.6 8.4C5.51 8.94 6.53 9.2 7.72 9.2C7.85 9.2 7.99 9.2 8.13 9.19C8.82 9.16 9.08 8.9 9.11 8.2C9.13 7.85 9.16 7.47 9.33 7.16C9.44 6.96 9.54 6.96 9.57 6.96C9.63 6.96 9.71 6.99 9.8 7.04C9.95 7.14 10.08 7.28 10.18 7.4C10.28 7.51 10.38 7.63 10.48 7.74C10.69 7.99 10.91 8.24 11.14 8.48C11.64 9.01 12.19 9.24 12.83 9.19L15.2 9.19C15.2 9.19 15.21 9.19 15.21 9.19C15.45 9.18 15.65 9.04 15.77 8.82C15.92 8.55 15.92 8.2 15.77 7.89C15.59 7.54 15.36 7.24 15.16 6.99Z"
          fill="#7572D5" fill-opacity="1.000000" fill-rule="nonzero"/>
    <g id="linkedin">
        <path d="M9.53 14.88L12.8 14.88L12.8 25.36L9.53 25.36L9.53 14.88Z" fill="#7572D5" fill-opacity="1.000000"
              fill-rule="evenodd"/>
        <path d="M11.1 9.94C9.89 9.94 9.09 10.72 9.09 11.75C9.09 12.77 9.86 13.57 11.05 13.57L11.08 13.57C12.31 13.57 13.08 12.76 13.07 11.75C13.04 10.72 12.3 9.94 11.1 9.94Z"
              fill="#7572D5" fill-opacity="1.000000" fill-rule="nonzero"/>
        <path d="M21.74 14.78C19.87 14.78 18.69 15.81 18.48 16.53L18.48 14.88L14.8 14.88C14.84 15.75 14.8 25.36 14.8 25.36L18.48 25.36L18.48 19.7C18.48 19.37 18.46 19.06 18.55 18.84C18.8 18.21 19.35 17.55 20.33 17.55C21.6 17.55 22.18 18.52 22.18 19.94L22.18 25.36L25.9 25.36L25.9 19.53C25.9 16.29 24.07 14.78 21.74 14.78Z"
              fill="#7572D5" fill-opacity="1.000000" fill-rule="nonzero"/>
    </g>
    <g id="ballons">
        <path style=" stroke:none;fill-rule:nonzero;fill:rgb(0%,0%,0%);fill-opacity:1;" d="M 33.273438 8.085938 C 34.386719 7.75 35.5625 7.683594 36.707031 7.890625 C 38.359375 8.183594 39.847656 9.066406 40.917969 10.375 C 43.265625 13.207031 44.046875 16.511719 43.632812 20.132812 C 43.488281 21.398438 42.898438 22.519531 42.1875 23.558594 C 41.097656 25.136719 39.777344 26.539062 38.273438 27.722656 C 37.347656 28.460938 36.300781 29.023438 35.179688 29.394531 C 34.898438 29.488281 34.621094 29.589844 34.347656 29.6875 C 34.78125 31.433594 34.378906 31.917969 32.65625 31.800781 C 32.296875 31.773438 31.933594 31.75 31.570312 31.761719 C 30.886719 31.777344 30.234375 31.738281 29.769531 30.882812 C 29.523438 31.417969 29.320312 31.785156 29.179688 32.171875 C 29.039062 32.574219 28.925781 32.984375 28.84375 33.402344 C 28.566406 34.785156 27.714844 35.734375 26.609375 36.496094 C 26.113281 36.835938 25.585938 36.863281 25.378906 36.589844 C 25.15625 36.296875 25.28125 35.867188 25.734375 35.386719 C 25.984375 35.121094 26.238281 34.863281 26.503906 34.609375 C 27.058594 34.089844 27.460938 33.417969 27.660156 32.679688 C 28.003906 31.378906 28.539062 30.214844 29.90625 29.441406 C 28.300781 28.808594 26.925781 27.6875 25.96875 26.230469 C 25.390625 26.546875 24.867188 26.828125 24.289062 27.140625 C 24.390625 27.441406 24.503906 27.714844 24.578125 28 C 24.847656 29.066406 24.265625 29.808594 23.179688 29.820312 C 22.835938 29.820312 22.363281 29.585938 22.1875 29.992188 C 22 30.433594 21.929688 30.917969 21.984375 31.394531 C 22.082031 32.082031 22.378906 32.738281 22.519531 33.421875 C 22.636719 33.957031 22.6875 34.503906 22.671875 35.050781 C 22.632812 35.445312 22.519531 35.824219 22.328125 36.171875 C 21.996094 36.828125 21.546875 37.070312 21.132812 36.902344 C 20.730469 36.738281 20.605469 36.28125 20.898438 35.535156 C 21.246094 34.652344 21.148438 33.804688 20.917969 32.933594 C 20.648438 31.898438 20.425781 30.855469 20.832031 29.738281 C 20.621094 29.660156 20.429688 29.597656 20.25 29.515625 C 19.492188 29.171875 19.378906 28.503906 19.992188 27.925781 C 20.273438 27.660156 20.601562 27.445312 20.902344 27.214844 L 16.621094 25.324219 L 13.980469 29.660156 C 14.25 30.175781 14.539062 30.625 15.109375 30.894531 C 15.679688 31.167969 15.96875 31.734375 16.113281 32.347656 C 16.1875 32.644531 16.238281 32.945312 16.261719 33.25 C 16.289062 33.648438 16.402344 34.035156 16.59375 34.382812 C 16.785156 34.730469 17.050781 35.027344 17.375 35.257812 C 17.722656 35.546875 18.050781 35.863281 18.347656 36.203125 C 18.644531 36.515625 18.535156 36.863281 18.117188 36.910156 C 17.816406 36.941406 17.515625 36.917969 17.222656 36.839844 C 16.554688 36.648438 15.964844 36.246094 15.53125 35.695312 C 15.097656 35.140625 14.847656 34.464844 14.816406 33.761719 C 14.792969 33.242188 14.742188 32.726562 14.6875 32.210938 C 14.648438 32.089844 14.59375 31.972656 14.519531 31.867188 C 13.390625 32.523438 12.179688 32.382812 11.003906 32.285156 C 10.050781 32.210938 9.785156 31.464844 10.304688 30.625 C 10.382812 30.496094 10.480469 30.378906 10.609375 30.199219 C 10.414062 30.082031 10.253906 29.96875 10.078125 29.886719 C 9.09375 29.425781 8.09375 29 7.121094 28.511719 C 1.167969 25.539062 -0.785156 19.292969 0.667969 13.613281 C 1.191406 11.578125 2.15625 9.804688 3.71875 8.417969 C 5.589844 6.761719 7.734375 5.972656 10.238281 6.644531 C 10.699219 6.765625 11.132812 6.980469 11.644531 7.175781 C 11.761719 6.933594 11.882812 6.703125 11.992188 6.460938 C 13.285156 3.605469 15.375 1.679688 18.375 0.800781 C 20.332031 0.226562 22.3125 -0.0429688 24.355469 0.183594 C 27.839844 0.566406 30.355469 2.390625 32.050781 5.433594 C 32.503906 6.253906 32.84375 7.140625 33.273438 8.085938 Z M 31.777344 13.59375 C 31.746094 10.296875 31.183594 8.152344 30.097656 6.171875 C 28.886719 3.964844 27.070312 2.589844 24.539062 2.234375 C 22.382812 1.933594 20.339844 2.332031 18.34375 3.109375 C 16.871094 3.691406 15.632812 4.761719 14.832031 6.148438 C 13.691406 8.035156 13.28125 10.113281 13.375 12.292969 C 13.480469 14.699219 14.148438 16.972656 15.019531 19.207031 C 16.289062 22.460938 18.484375 24.65625 21.835938 25.625 C 22.195312 25.726562 22.457031 25.734375 22.757812 25.519531 C 24.632812 24.1875 26.558594 22.914062 28.125 21.191406 C 30.339844 18.757812 31.851562 16.015625 31.777344 13.59375 Z M 11.171875 8.914062 C 10.617188 8.578125 9.984375 8.390625 9.339844 8.367188 C 7.480469 8.316406 6.035156 9.164062 4.867188 10.550781 C 3.160156 12.582031 2.699219 15.03125 2.78125 17.582031 C 2.890625 20.910156 4.121094 23.75 6.976562 25.578125 C 8.691406 26.675781 10.566406 27.527344 12.390625 28.5 C 13.582031 27.074219 14.757812 25.777344 15.503906 24.195312 C 11.929688 19.5 10.574219 14.734375 11.171875 8.914062 Z M 27.300781 25.304688 C 27.515625 25.550781 27.707031 25.78125 27.90625 26.003906 C 28.707031 26.878906 29.746094 27.355469 30.8125 27.804688 C 31.226562 27.980469 31.601562 28.050781 32.027344 27.894531 C 32.28125 27.808594 32.542969 27.734375 32.808594 27.679688 C 35.144531 27.140625 37.269531 25.914062 38.914062 24.148438 C 40.785156 22.160156 42.066406 20.003906 41.640625 17.105469 C 41.328125 14.972656 40.726562 12.984375 39.25 11.378906 C 37.753906 9.742188 35.886719 9.269531 33.710938 9.667969 C 33.808594 10.558594 33.933594 11.371094 33.972656 12.183594 C 34.183594 16.238281 32.664062 19.640625 30.039062 22.589844 C 29.214844 23.511719 28.28125 24.335938 27.300781 25.304688 Z M 27.300781 25.304688 "/>
    </g>
    <g id="flowers">
        <path style=" stroke:none;fill-rule:nonzero;fill:rgb(18.039216%,49.019608%,19.607843%);fill-opacity:1;" d="M 24.375 40.3125 C 24.375 29.25 10.96875 11.625 4.125 8.4375 C 17.625 8.4375 24.375 19.6875 24.375 40.3125 Z M 24.375 40.3125 "/>
        <path style=" stroke:none;fill-rule:nonzero;fill:rgb(18.039216%,49.019608%,19.607843%);fill-opacity:1;" d="M 26.25 17.625 C 26.15625 17.90625 25.21875 22.5 24.65625 31.6875 C 23.625 20.53125 21.46875 12.9375 21.46875 12.84375 L 19.6875 13.40625 C 19.6875 13.5 21.84375 21.09375 22.875 32.25 C 20.4375 23.4375 15.84375 20.0625 15.5625 19.96875 L 14.53125 21.46875 C 14.53125 21.46875 22.5 24.46875 22.5 41.25 L 26.25 41.25 C 26.25 24 28.125 18.09375 28.125 18 Z M 26.25 17.625 "/>
        <path style=" stroke:none;fill-rule:nonzero;fill:rgb(84.705882%,26.27451%,8.235294%);fill-opacity:1;" d="M 15.9375 4.96875 C 17.25 4.21875 19.03125 4.6875 19.78125 6 C 20.53125 7.3125 20.15625 12.28125 20.15625 12.28125 C 20.15625 12.28125 15.65625 10.125 14.90625 8.8125 C 14.15625 7.5 14.625 5.8125 15.9375 4.96875 Z M 15.9375 4.96875 "/>
        <path style=" stroke:none;fill-rule:nonzero;fill:rgb(84.705882%,26.27451%,8.235294%);fill-opacity:1;" d="M 25.3125 21.28125 C 24 22.03125 22.21875 21.5625 21.46875 20.25 C 20.71875 18.9375 21.09375 13.96875 21.09375 13.96875 C 21.09375 13.96875 25.59375 16.125 26.34375 17.4375 C 27.09375 18.75 26.625 20.4375 25.3125 21.28125 Z M 25.3125 21.28125 "/>
        <path style=" stroke:none;fill-rule:nonzero;fill:rgb(84.705882%,26.27451%,8.235294%);fill-opacity:1;" d="M 11.25 13.125 C 11.25 11.53125 12.46875 10.3125 14.0625 10.3125 C 15.65625 10.3125 19.6875 13.125 19.6875 13.125 C 19.6875 13.125 15.65625 15.9375 14.0625 15.9375 C 12.46875 15.9375 11.25 14.71875 11.25 13.125 Z M 11.25 13.125 "/>
        <path style=" stroke:none;fill-rule:nonzero;fill:rgb(84.705882%,26.27451%,8.235294%);fill-opacity:1;" d="M 30 13.125 C 30 14.71875 28.78125 15.9375 27.1875 15.9375 C 25.59375 15.9375 21.5625 13.125 21.5625 13.125 C 21.5625 13.125 25.59375 10.3125 27.1875 10.3125 C 28.78125 10.3125 30 11.53125 30 13.125 Z M 30 13.125 "/>
        <path style=" stroke:none;fill-rule:nonzero;fill:rgb(84.705882%,26.27451%,8.235294%);fill-opacity:1;" d="M 15.9375 21.28125 C 14.625 20.53125 14.15625 18.75 14.90625 17.4375 C 15.65625 16.125 20.15625 13.96875 20.15625 13.96875 C 20.15625 13.96875 20.53125 18.9375 19.78125 20.25 C 19.03125 21.5625 17.25 22.03125 15.9375 21.28125 Z M 15.9375 21.28125 "/>
        <path style=" stroke:none;fill-rule:nonzero;fill:rgb(84.705882%,26.27451%,8.235294%);fill-opacity:1;" d="M 25.3125 4.96875 C 26.625 5.71875 27.09375 7.5 26.34375 8.8125 C 25.59375 10.125 21.09375 12.28125 21.09375 12.28125 C 21.09375 12.28125 20.71875 7.3125 21.46875 6 C 22.21875 4.6875 24 4.21875 25.3125 4.96875 Z M 25.3125 4.96875 "/>
        <path style=" stroke:none;fill-rule:nonzero;fill:rgb(100%,34.117647%,13.333333%);fill-opacity:1;" d="M 20.625 3.75 C 22.21875 3.75 23.4375 4.96875 23.4375 6.5625 C 23.4375 8.15625 20.625 12.1875 20.625 12.1875 C 20.625 12.1875 17.8125 8.15625 17.8125 6.5625 C 17.8125 4.96875 19.03125 3.75 20.625 3.75 Z M 20.625 3.75 "/>
        <path style=" stroke:none;fill-rule:nonzero;fill:rgb(100%,34.117647%,13.333333%);fill-opacity:1;" d="M 20.625 22.5 C 19.03125 22.5 17.8125 21.28125 17.8125 19.6875 C 17.8125 18.09375 20.625 14.0625 20.625 14.0625 C 20.625 14.0625 23.4375 18.09375 23.4375 19.6875 C 23.4375 21.28125 22.21875 22.5 20.625 22.5 Z M 20.625 22.5 "/>
        <path style=" stroke:none;fill-rule:nonzero;fill:rgb(100%,34.117647%,13.333333%);fill-opacity:1;" d="M 12.46875 8.4375 C 13.21875 7.125 15 6.65625 16.3125 7.40625 C 17.625 8.15625 19.78125 12.65625 19.78125 12.65625 C 19.78125 12.65625 14.8125 13.03125 13.5 12.28125 C 12.1875 11.53125 11.71875 9.75 12.46875 8.4375 Z M 12.46875 8.4375 "/>
        <path style=" stroke:none;fill-rule:nonzero;fill:rgb(100%,34.117647%,13.333333%);fill-opacity:1;" d="M 28.78125 17.8125 C 28.03125 19.125 26.25 19.59375 24.9375 18.84375 C 23.625 18.09375 21.46875 13.59375 21.46875 13.59375 C 21.46875 13.59375 26.4375 13.21875 27.75 13.96875 C 29.0625 14.71875 29.53125 16.5 28.78125 17.8125 Z M 28.78125 17.8125 "/>
        <path style=" stroke:none;fill-rule:nonzero;fill:rgb(100%,34.117647%,13.333333%);fill-opacity:1;" d="M 12.46875 17.8125 C 11.71875 16.5 12.1875 14.71875 13.5 13.96875 C 14.8125 13.21875 19.78125 13.59375 19.78125 13.59375 C 19.78125 13.59375 17.625 18.09375 16.3125 18.84375 C 15 19.59375 13.3125 19.125 12.46875 17.8125 Z M 12.46875 17.8125 "/>
        <path style=" stroke:none;fill-rule:nonzero;fill:rgb(100%,34.117647%,13.333333%);fill-opacity:1;" d="M 28.78125 8.4375 C 29.53125 9.75 29.0625 11.53125 27.75 12.28125 C 26.4375 13.03125 21.46875 12.65625 21.46875 12.65625 C 21.46875 12.65625 23.625 8.15625 24.9375 7.40625 C 26.25 6.65625 27.9375 7.125 28.78125 8.4375 Z M 28.78125 8.4375 "/>
        <path style=" stroke:none;fill-rule:nonzero;fill:rgb(100%,75.686275%,2.745098%);fill-opacity:1;" d="M 24.375 13.125 C 24.375 15.195312 22.695312 16.875 20.625 16.875 C 18.554688 16.875 16.875 15.195312 16.875 13.125 C 16.875 11.054688 18.554688 9.375 20.625 9.375 C 22.695312 9.375 24.375 11.054688 24.375 13.125 Z M 24.375 13.125 "/>
        <path style=" stroke:none;fill-rule:nonzero;fill:rgb(100%,92.156863%,23.137255%);fill-opacity:1;" d="M 22.96875 13.125 C 22.96875 14.417969 21.917969 15.46875 20.625 15.46875 C 19.332031 15.46875 18.28125 14.417969 18.28125 13.125 C 18.28125 11.832031 19.332031 10.78125 20.625 10.78125 C 21.917969 10.78125 22.96875 11.832031 22.96875 13.125 Z M 22.96875 13.125 "/>
        <path style=" stroke:none;fill-rule:nonzero;fill:rgb(26.27451%,62.745098%,27.843137%);fill-opacity:1;" d="M 41.8125 15 C 34.96875 18.1875 26.25 28.59375 26.25 38.4375 C 26.25 22.03125 28.3125 15 41.8125 15 Z M 41.8125 15 "/>
        <path style=" stroke:none;fill-rule:nonzero;fill:rgb(29.803922%,68.627451%,31.372549%);fill-opacity:1;" d="M 33.375 15 C 26.53125 18.1875 24.375 36.84375 24.375 39.375 C 24.375 36.1875 19.875 15 33.375 15 Z M 33.375 15 "/>
        <path style=" stroke:none;fill-rule:nonzero;fill:rgb(26.27451%,62.745098%,27.843137%);fill-opacity:1;" d="M 22.5 39.375 C 22.5 29.53125 14.71875 28.5 7.875 25.3125 C 21.375 25.3125 24.09375 28.59375 22.5 39.375 Z M 22.5 39.375 "/>
        <path style=" stroke:none;fill-rule:nonzero;fill:rgb(77.647059%,15.686275%,15.686275%);fill-opacity:1;" d="M 10.3125 12.46875 C 11.625 11.71875 13.40625 12.1875 14.15625 13.5 C 14.90625 14.8125 14.53125 19.78125 14.53125 19.78125 C 14.53125 19.78125 10.03125 17.625 9.28125 16.3125 C 8.53125 15 9 13.3125 10.3125 12.46875 Z M 10.3125 12.46875 "/>
        <path style=" stroke:none;fill-rule:nonzero;fill:rgb(77.647059%,15.686275%,15.686275%);fill-opacity:1;" d="M 19.6875 28.78125 C 18.375 29.53125 16.59375 29.0625 15.84375 27.75 C 15.09375 26.4375 15.46875 21.46875 15.46875 21.46875 C 15.46875 21.46875 19.96875 23.625 20.71875 24.9375 C 21.46875 26.25 21 27.9375 19.6875 28.78125 Z M 19.6875 28.78125 "/>
        <path style=" stroke:none;fill-rule:nonzero;fill:rgb(77.647059%,15.686275%,15.686275%);fill-opacity:1;" d="M 5.625 20.625 C 5.625 19.03125 6.84375 17.8125 8.4375 17.8125 C 10.03125 17.8125 14.0625 20.625 14.0625 20.625 C 14.0625 20.625 10.03125 23.4375 8.4375 23.4375 C 6.84375 23.4375 5.625 22.21875 5.625 20.625 Z M 5.625 20.625 "/>
        <path style=" stroke:none;fill-rule:nonzero;fill:rgb(77.647059%,15.686275%,15.686275%);fill-opacity:1;" d="M 24.375 20.625 C 24.375 22.21875 23.15625 23.4375 21.5625 23.4375 C 19.96875 23.4375 15.9375 20.625 15.9375 20.625 C 15.9375 20.625 19.96875 17.8125 21.5625 17.8125 C 23.15625 17.8125 24.375 19.03125 24.375 20.625 Z M 24.375 20.625 "/>
        <path style=" stroke:none;fill-rule:nonzero;fill:rgb(77.647059%,15.686275%,15.686275%);fill-opacity:1;" d="M 10.3125 28.78125 C 9 28.03125 8.53125 26.25 9.28125 24.9375 C 10.03125 23.625 14.53125 21.46875 14.53125 21.46875 C 14.53125 21.46875 14.90625 26.4375 14.15625 27.75 C 13.40625 29.0625 11.625 29.53125 10.3125 28.78125 Z M 10.3125 28.78125 "/>
        <path style=" stroke:none;fill-rule:nonzero;fill:rgb(77.647059%,15.686275%,15.686275%);fill-opacity:1;" d="M 19.6875 12.46875 C 21 13.21875 21.46875 15 20.71875 16.3125 C 19.96875 17.625 15.46875 19.78125 15.46875 19.78125 C 15.46875 19.78125 15.09375 14.8125 15.84375 13.5 C 16.59375 12.1875 18.375 11.71875 19.6875 12.46875 Z M 19.6875 12.46875 "/>
        <path style=" stroke:none;fill-rule:nonzero;fill:rgb(95.686275%,26.27451%,21.176471%);fill-opacity:1;" d="M 15 11.25 C 16.59375 11.25 17.8125 12.46875 17.8125 14.0625 C 17.8125 15.65625 15 19.6875 15 19.6875 C 15 19.6875 12.1875 15.65625 12.1875 14.0625 C 12.1875 12.46875 13.40625 11.25 15 11.25 Z M 15 11.25 "/>
        <path style=" stroke:none;fill-rule:nonzero;fill:rgb(95.686275%,26.27451%,21.176471%);fill-opacity:1;" d="M 15 30 C 13.40625 30 12.1875 28.78125 12.1875 27.1875 C 12.1875 25.59375 15 21.5625 15 21.5625 C 15 21.5625 17.8125 25.59375 17.8125 27.1875 C 17.8125 28.78125 16.59375 30 15 30 Z M 15 30 "/>
        <path style=" stroke:none;fill-rule:nonzero;fill:rgb(95.686275%,26.27451%,21.176471%);fill-opacity:1;" d="M 6.84375 15.9375 C 7.59375 14.625 9.375 14.15625 10.6875 14.90625 C 12 15.65625 14.15625 20.15625 14.15625 20.15625 C 14.15625 20.15625 9.1875 20.53125 7.875 19.78125 C 6.5625 19.03125 6.09375 17.25 6.84375 15.9375 Z M 6.84375 15.9375 "/>
        <path style=" stroke:none;fill-rule:nonzero;fill:rgb(95.686275%,26.27451%,21.176471%);fill-opacity:1;" d="M 23.15625 25.3125 C 22.40625 26.625 20.625 27.09375 19.3125 26.34375 C 18 25.59375 15.84375 21.09375 15.84375 21.09375 C 15.84375 21.09375 20.8125 20.71875 22.125 21.46875 C 23.4375 22.21875 23.90625 24 23.15625 25.3125 Z M 23.15625 25.3125 "/>
        <path style=" stroke:none;fill-rule:nonzero;fill:rgb(95.686275%,26.27451%,21.176471%);fill-opacity:1;" d="M 6.84375 25.3125 C 6.09375 24 6.5625 22.21875 7.875 21.46875 C 9.1875 20.71875 14.15625 21.09375 14.15625 21.09375 C 14.15625 21.09375 12 25.59375 10.6875 26.34375 C 9.375 27.09375 7.6875 26.625 6.84375 25.3125 Z M 6.84375 25.3125 "/>
        <path style=" stroke:none;fill-rule:nonzero;fill:rgb(95.686275%,26.27451%,21.176471%);fill-opacity:1;" d="M 23.15625 15.9375 C 23.90625 17.25 23.4375 19.03125 22.125 19.78125 C 20.8125 20.53125 15.84375 20.15625 15.84375 20.15625 C 15.84375 20.15625 18 15.65625 19.3125 14.90625 C 20.625 14.15625 22.3125 14.625 23.15625 15.9375 Z M 23.15625 15.9375 "/>
        <path style=" stroke:none;fill-rule:nonzero;fill:rgb(100%,59.607843%,0%);fill-opacity:1;" d="M 18.75 20.625 C 18.75 22.695312 17.070312 24.375 15 24.375 C 12.929688 24.375 11.25 22.695312 11.25 20.625 C 11.25 18.554688 12.929688 16.875 15 16.875 C 17.070312 16.875 18.75 18.554688 18.75 20.625 Z M 18.75 20.625 "/>
        <path style=" stroke:none;fill-rule:nonzero;fill:rgb(100%,92.156863%,23.137255%);fill-opacity:1;" d="M 17.34375 20.625 C 17.34375 21.917969 16.292969 22.96875 15 22.96875 C 13.707031 22.96875 12.65625 21.917969 12.65625 20.625 C 12.65625 19.332031 13.707031 18.28125 15 18.28125 C 16.292969 18.28125 17.34375 19.332031 17.34375 20.625 Z M 17.34375 20.625 "/>
        <path style=" stroke:none;fill-rule:nonzero;fill:rgb(70.196078%,0%,81.960784%);fill-opacity:1;" d="M 22.5 9.65625 C 23.8125 8.90625 25.59375 9.375 26.34375 10.6875 C 27.09375 12 26.71875 16.96875 26.71875 16.96875 C 26.71875 16.96875 22.21875 14.8125 21.46875 13.5 C 20.71875 12.1875 21.1875 10.5 22.5 9.65625 Z M 22.5 9.65625 "/>
        <path style=" stroke:none;fill-rule:nonzero;fill:rgb(70.196078%,0%,81.960784%);fill-opacity:1;" d="M 31.875 25.96875 C 30.5625 26.71875 28.78125 26.25 28.03125 24.9375 C 27.28125 23.625 27.65625 18.65625 27.65625 18.65625 C 27.65625 18.65625 32.15625 20.8125 32.90625 22.125 C 33.65625 23.4375 33.1875 25.125 31.875 25.96875 Z M 31.875 25.96875 "/>
        <path style=" stroke:none;fill-rule:nonzero;fill:rgb(70.196078%,0%,81.960784%);fill-opacity:1;" d="M 17.8125 17.8125 C 17.8125 16.21875 19.03125 15 20.625 15 C 22.21875 15 26.25 17.8125 26.25 17.8125 C 26.25 17.8125 22.21875 20.625 20.625 20.625 C 19.03125 20.625 17.8125 19.40625 17.8125 17.8125 Z M 17.8125 17.8125 "/>
        <path style=" stroke:none;fill-rule:nonzero;fill:rgb(70.196078%,0%,81.960784%);fill-opacity:1;" d="M 36.5625 17.8125 C 36.5625 19.40625 35.34375 20.625 33.75 20.625 C 32.15625 20.625 28.125 17.8125 28.125 17.8125 C 28.125 17.8125 32.15625 15 33.75 15 C 35.34375 15 36.5625 16.21875 36.5625 17.8125 Z M 36.5625 17.8125 "/>
        <path style=" stroke:none;fill-rule:nonzero;fill:rgb(70.196078%,0%,81.960784%);fill-opacity:1;" d="M 22.5 25.96875 C 21.1875 25.21875 20.71875 23.4375 21.46875 22.125 C 22.21875 20.8125 26.71875 18.65625 26.71875 18.65625 C 26.71875 18.65625 27.09375 23.625 26.34375 24.9375 C 25.59375 26.25 23.8125 26.71875 22.5 25.96875 Z M 22.5 25.96875 "/>
        <path style=" stroke:none;fill-rule:nonzero;fill:rgb(70.196078%,0%,81.960784%);fill-opacity:1;" d="M 31.875 9.65625 C 33.1875 10.40625 33.65625 12.1875 32.90625 13.5 C 32.15625 14.8125 27.65625 16.96875 27.65625 16.96875 C 27.65625 16.96875 27.28125 12 28.03125 10.6875 C 28.78125 9.375 30.5625 8.90625 31.875 9.65625 Z M 31.875 9.65625 "/>
        <path style=" stroke:none;fill-rule:nonzero;fill:rgb(87.843137%,25.098039%,98.431373%);fill-opacity:1;" d="M 27.1875 8.4375 C 28.78125 8.4375 30 9.65625 30 11.25 C 30 12.84375 27.1875 16.875 27.1875 16.875 C 27.1875 16.875 24.375 12.84375 24.375 11.25 C 24.375 9.65625 25.59375 8.4375 27.1875 8.4375 Z M 27.1875 8.4375 "/>
        <path style=" stroke:none;fill-rule:nonzero;fill:rgb(87.843137%,25.098039%,98.431373%);fill-opacity:1;" d="M 27.1875 27.1875 C 25.59375 27.1875 24.375 25.96875 24.375 24.375 C 24.375 22.78125 27.1875 18.75 27.1875 18.75 C 27.1875 18.75 30 22.78125 30 24.375 C 30 25.96875 28.78125 27.1875 27.1875 27.1875 Z M 27.1875 27.1875 "/>
        <path style=" stroke:none;fill-rule:nonzero;fill:rgb(87.843137%,25.098039%,98.431373%);fill-opacity:1;" d="M 19.03125 13.125 C 19.78125 11.8125 21.5625 11.34375 22.875 12.09375 C 24.1875 12.84375 26.34375 17.34375 26.34375 17.34375 C 26.34375 17.34375 21.375 17.71875 20.0625 16.96875 C 18.75 16.21875 18.28125 14.4375 19.03125 13.125 Z M 19.03125 13.125 "/>
        <path style=" stroke:none;fill-rule:nonzero;fill:rgb(87.843137%,25.098039%,98.431373%);fill-opacity:1;" d="M 35.34375 22.5 C 34.59375 23.8125 32.8125 24.28125 31.5 23.53125 C 30.1875 22.78125 28.03125 18.28125 28.03125 18.28125 C 28.03125 18.28125 33 17.90625 34.3125 18.65625 C 35.625 19.40625 36.09375 21.1875 35.34375 22.5 Z M 35.34375 22.5 "/>
        <path style=" stroke:none;fill-rule:nonzero;fill:rgb(87.843137%,25.098039%,98.431373%);fill-opacity:1;" d="M 19.03125 22.5 C 18.28125 21.1875 18.75 19.40625 20.0625 18.65625 C 21.375 17.90625 26.34375 18.28125 26.34375 18.28125 C 26.34375 18.28125 24.1875 22.78125 22.875 23.53125 C 21.5625 24.28125 19.875 23.8125 19.03125 22.5 Z M 19.03125 22.5 "/>
        <path style=" stroke:none;fill-rule:nonzero;fill:rgb(87.843137%,25.098039%,98.431373%);fill-opacity:1;" d="M 35.34375 13.125 C 36.09375 14.4375 35.625 16.21875 34.3125 16.96875 C 33 17.71875 28.03125 17.34375 28.03125 17.34375 C 28.03125 17.34375 30.1875 12.84375 31.5 12.09375 C 32.8125 11.34375 34.5 11.8125 35.34375 13.125 Z M 35.34375 13.125 "/>
        <path style=" stroke:none;fill-rule:nonzero;fill:rgb(100%,59.607843%,0%);fill-opacity:1;" d="M 30.9375 17.8125 C 30.9375 19.882812 29.257812 21.5625 27.1875 21.5625 C 25.117188 21.5625 23.4375 19.882812 23.4375 17.8125 C 23.4375 15.742188 25.117188 14.0625 27.1875 14.0625 C 29.257812 14.0625 30.9375 15.742188 30.9375 17.8125 Z M 30.9375 17.8125 "/>
        <path style=" stroke:none;fill-rule:nonzero;fill:rgb(100%,92.156863%,23.137255%);fill-opacity:1;" d="M 29.53125 17.8125 C 29.53125 19.105469 28.480469 20.15625 27.1875 20.15625 C 25.894531 20.15625 24.84375 19.105469 24.84375 17.8125 C 24.84375 16.519531 25.894531 15.46875 27.1875 15.46875 C 28.480469 15.46875 29.53125 16.519531 29.53125 17.8125 Z M 29.53125 17.8125 "/>
        <path style=" stroke:none;fill-rule:nonzero;fill:rgb(95.686275%,26.27451%,21.176471%);fill-opacity:1;" d="M 26.4375 36.5625 L 22.3125 37.40625 L 22.03125 35.53125 L 26.71875 34.78125 Z M 26.4375 36.5625 "/>
        <path style=" stroke:none;fill-rule:nonzero;fill:rgb(95.686275%,26.27451%,21.176471%);fill-opacity:1;" d="M 26.25 39.375 L 22.5 40.3125 L 22.40625 38.4375 L 26.34375 37.5 Z M 26.25 39.375 "/>
    </g>
    <g id="champange">
        <path style=" stroke:none;fill-rule:nonzero;fill:rgb(0%,0%,0%);fill-opacity:1;" d="M 44.011719 2.945312 L 42.054688 0.988281 C 41.417969 0.351562 40.570312 0 39.667969 0 C 38.765625 0 37.917969 0.351562 37.28125 0.988281 L 34.066406 4.203125 C 33.597656 4.671875 33.425781 5.328125 33.554688 5.933594 L 29.835938 9.652344 C 28.207031 11.28125 26.042969 12.257812 23.746094 12.402344 C 22.597656 12.472656 21.46875 12.71875 20.40625 13.132812 C 20.21875 13.203125 20.03125 13.28125 19.832031 13.371094 C 18.691406 13.886719 17.65625 14.582031 16.753906 15.433594 C 16.675781 15.507812 1.25 30.929688 1.25 30.929688 C -0.414062 32.59375 -0.414062 35.300781 1.25 36.964844 L 8.035156 43.75 C 8.867188 44.582031 9.960938 45 11.054688 45 C 12.144531 45 13.238281 44.585938 14.070312 43.753906 C 14.070312 43.753906 29.492188 28.328125 29.566406 28.25 C 30.566406 27.1875 31.34375 25.960938 31.867188 24.597656 C 32.28125 23.53125 32.527344 22.40625 32.601562 21.257812 C 32.671875 20.113281 32.949219 19 33.417969 17.957031 C 33.890625 16.914062 34.539062 15.972656 35.347656 15.164062 L 39.066406 11.449219 C 39.195312 11.472656 39.324219 11.488281 39.457031 11.488281 C 39.941406 11.488281 40.425781 11.304688 40.796875 10.933594 L 44.011719 7.71875 C 45.328125 6.402344 45.328125 4.261719 44.011719 2.945312 Z M 12.820312 42.503906 C 11.847656 43.480469 10.257812 43.480469 9.28125 42.503906 L 2.496094 35.71875 C 1.519531 34.742188 1.519531 33.152344 2.496094 32.179688 L 3.476562 31.199219 L 13.800781 41.527344 Z M 15.050781 40.277344 L 4.722656 29.953125 L 13.382812 21.292969 L 23.710938 31.617188 Z M 24.957031 30.367188 L 14.632812 20.042969 L 17.355469 17.320312 L 20.613281 20.582031 C 20.636719 21.582031 21.042969 22.53125 21.753906 23.246094 C 22.46875 23.957031 23.421875 24.363281 24.417969 24.386719 L 27.679688 27.648438 Z M 28.875 26.347656 L 25.398438 22.867188 C 25.230469 22.703125 25.007812 22.609375 24.773438 22.609375 C 24.746094 22.609375 24.722656 22.609375 24.695312 22.613281 C 24.066406 22.667969 23.449219 22.445312 23.003906 21.996094 C 22.558594 21.550781 22.332031 20.933594 22.386719 20.304688 C 22.410156 20.042969 22.316406 19.789062 22.132812 19.601562 L 18.65625 16.128906 C 19.226562 15.683594 19.851562 15.304688 20.515625 15 L 23.625 18.109375 C 23.808594 18.292969 24.066406 18.386719 24.324219 18.367188 C 24.957031 18.3125 25.574219 18.535156 26.019531 18.980469 C 26.464844 19.425781 26.691406 20.042969 26.636719 20.675781 C 26.613281 20.933594 26.707031 21.191406 26.890625 21.375 L 30 24.484375 C 29.695312 25.148438 29.320312 25.769531 28.875 26.347656 Z M 34.101562 13.914062 C 33.140625 14.878906 32.367188 15.992188 31.808594 17.234375 C 31.25 18.472656 30.925781 19.789062 30.839844 21.144531 C 30.808594 21.640625 30.738281 22.132812 30.628906 22.617188 L 28.40625 20.394531 C 28.382812 19.398438 27.980469 18.445312 27.265625 17.734375 C 26.554688 17.019531 25.601562 16.617188 24.605469 16.59375 L 22.382812 14.371094 C 22.867188 14.265625 23.359375 14.195312 23.855469 14.164062 C 26.585938 13.992188 29.152344 12.832031 31.085938 10.898438 L 34.582031 7.402344 L 37.597656 10.417969 Z M 42.765625 6.472656 L 39.550781 9.6875 C 39.496094 9.738281 39.414062 9.738281 39.363281 9.6875 L 35.316406 5.640625 C 35.261719 5.585938 35.261719 5.503906 35.316406 5.453125 L 38.53125 2.238281 C 38.832031 1.933594 39.238281 1.765625 39.667969 1.765625 C 40.097656 1.765625 40.503906 1.933594 40.808594 2.238281 L 42.765625 4.191406 C 43.390625 4.820312 43.390625 5.84375 42.765625 6.472656 Z M 42.765625 6.472656 "/>
        <path style=" stroke:none;fill-rule:nonzero;fill:rgb(0%,0%,0%);fill-opacity:1;" d="M 13.269531 28.378906 L 16.621094 31.730469 C 16.792969 31.902344 17.019531 31.988281 17.246094 31.988281 C 17.472656 31.988281 17.699219 31.902344 17.871094 31.730469 C 18.214844 31.382812 18.214844 30.824219 17.871094 30.480469 L 14.519531 27.128906 C 14.175781 26.785156 13.617188 26.785156 13.269531 27.128906 C 12.925781 27.476562 12.925781 28.035156 13.269531 28.378906 Z M 13.269531 28.378906 "/>
        <path style=" stroke:none;fill-rule:nonzero;fill:rgb(0%,0%,0%);fill-opacity:1;" d="M 12.714844 30.554688 C 12.371094 30.207031 11.8125 30.207031 11.46875 30.554688 C 11.121094 30.898438 11.121094 31.457031 11.46875 31.800781 L 15.441406 35.773438 C 15.613281 35.945312 15.839844 36.03125 16.0625 36.03125 C 16.289062 36.03125 16.515625 35.945312 16.6875 35.773438 C 17.03125 35.429688 17.03125 34.871094 16.6875 34.527344 Z M 12.714844 30.554688 "/>
        <path style=" stroke:none;fill-rule:nonzero;fill:rgb(0%,0%,0%);fill-opacity:1;" d="M 10.476562 28.3125 C 10.128906 27.96875 9.570312 27.96875 9.226562 28.3125 C 8.882812 28.65625 8.882812 29.214844 9.226562 29.5625 L 9.304688 29.640625 C 9.476562 29.8125 9.703125 29.898438 9.929688 29.898438 C 10.15625 29.898438 10.378906 29.8125 10.554688 29.640625 C 10.898438 29.292969 10.898438 28.734375 10.554688 28.390625 Z M 10.476562 28.3125 "/>
    </g>
</svg>
