<svg width="16.000000" height="14.000000" viewBox="0 0 16 14" fill="none" xmlns="http://www.w3.org/2000/svg">
    <g id="instagram">
        <path  d="M15.9 0.76L13.37 12.72C13.17 13.56 12.68 13.77 11.97 13.37L8.1 10.53L6.24 12.32C6.03 12.53 5.86 12.7 5.46 12.7L5.74 8.76L12.9 2.29C13.21 2.02 12.83 1.86 12.42 2.14L3.57 7.71L-0.24 6.52C-1.07 6.26 -1.09 5.69 -0.07 5.29L14.83 -0.45C15.52 -0.71 16.13 -0.29 15.9 0.76Z"
              fill="#1F1F20" fill-opacity="1.000000" fill-rule="nonzero"/>
    </g>
    <g id="logo">
        <path d="M0 1274 c0 -219 1 -225 20 -219 10 3 28 1 39 -4 17 -9 20 -7 23 12 6
40 33 26 34 -17 0 -26 5 -40 15 -42 37 -6 112 -48 116 -65 3 -10 11 -19 18
-19 7 0 24 -9 38 -20 32 -25 37 -25 37 1 0 11 16 54 35 96 19 41 32 79 29 84
-3 5 5 9 18 9 22 0 108 71 108 89 0 16 -73 66 -78 53 -5 -17 -32 -15 -32 2 0
8 7 16 16 18 14 3 13 7 -6 31 -22 28 -56 38 -47 13 3 -7 8 -35 12 -62 8 -63
-7 -39 -25 39 -12 51 -12 60 2 73 14 14 24 12 99 -29 118 -63 127 -64 177 -21
23 20 42 41 42 48 0 23 35 46 86 56 27 5 59 12 71 16 17 5 22 1 25 -18 2 -12
10 -23 18 -24 36 -2 40 -5 40 -30 0 -17 -6 -28 -20 -31 -27 -7 -25 -17 6 -42
33 -26 50 -26 71 -1 10 11 25 20 34 20 8 0 33 15 55 34 33 28 42 32 61 23 30
-14 33 -58 3 -50 -36 10 -150 -88 -150 -128 0 -11 42 -55 83 -88 15 -12 20
-12 35 2 16 15 17 13 14 -28 -2 -23 1 -52 7 -63 15 -28 70 -55 86 -42 14 12
65 -23 65 -45 0 -15 -62 -31 -79 -21 -15 10 -23 -11 -26 -65 -2 -27 -10 -60
-19 -74 -9 -13 -18 -34 -19 -46 -2 -12 -12 -24 -22 -25 -10 -1 -22 -7 -28 -13
-6 -6 -19 -11 -29 -11 -10 0 -18 -5 -18 -11 0 -6 -11 -8 -28 -4 -19 4 -46 -2
-85 -20 -31 -13 -57 -27 -57 -30 0 -2 7 -2 15 1 8 4 27 3 41 0 21 -6 24 -9 14
-21 -10 -12 -9 -15 3 -15 9 0 18 4 21 9 3 5 26 12 50 15 88 14 129 -34 113
-132 -7 -43 -13 -53 -33 -58 -13 -3 -24 -10 -24 -14 0 -5 -9 -6 -21 -3 -14 4
-18 11 -13 22 18 44 13 47 -93 67 -17 3 -23 11 -23 32 0 61 -77 94 -133 58
-20 -13 -26 -12 -64 14 -72 49 -103 62 -177 70 -39 5 -83 12 -98 15 -21 6 -28
4 -28 -8 0 -10 -6 -13 -19 -10 -10 2 -18 12 -17 20 2 25 -30 40 -55 25 -18
-12 -19 -11 -10 6 8 16 4 22 -28 40 -21 12 -43 22 -49 22 -12 0 -25 -34 -26
-69 -1 -13 -8 -28 -18 -34 -24 -16 -49 9 -46 47 1 17 -4 41 -10 53 -18 32 -16
33 31 28 68 -8 80 -7 106 13 35 26 38 42 8 42 -29 0 -67 45 -67 79 0 11 -8 25
-18 30 -14 8 -22 4 -37 -20 -11 -16 -25 -29 -32 -29 -6 0 -15 -9 -18 -20 -9
-29 -35 -25 -35 5 0 14 5 25 10 25 6 0 10 9 10 20 0 12 -5 17 -14 14 -8 -3
-17 -1 -21 5 -3 6 -19 11 -36 11 l-29 0 0 -90 c0 -68 3 -88 13 -84 7 2 21 -2
32 -10 20 -15 20 -15 0 -17 -11 -1 -26 -1 -33 0 -8 1 -12 -18 -12 -69 0 -56 3
-70 15 -70 19 0 19 -29 0 -36 -12 -5 -15 -31 -15 -145 l0 -138 28 1 c15 0 61
0 102 -2 52 -1 88 3 114 14 37 15 38 17 22 34 -33 37 -13 72 41 72 40 0 53
-22 29 -49 -20 -22 -20 -37 0 -45 34 -13 61 -5 83 25 l23 31 -22 20 c-60 56
-68 177 -14 213 25 16 44 11 160 -41 6 -3 14 4 17 15 4 16 13 21 40 21 42 0
69 -25 38 -35 -25 -8 -46 -43 -42 -68 2 -16 -4 -18 -51 -15 -45 3 -56 -1 -75
-21 -25 -27 -27 -38 -13 -75 7 -19 6 -24 -4 -20 -9 3 -13 -6 -14 -30 -1 -37
27 -76 56 -76 7 0 12 -8 10 -17 -2 -10 -12 -18 -23 -18 -21 -1 -22 -7 -10 -67
l7 -38 -48 -2 c-27 0 -98 0 -159 1 -134 4 -131 -11 5 -29 52 -6 151 -21 220
-32 137 -23 426 -33 448 -15 6 5 12 6 12 1 0 -4 7 1 16 12 10 12 17 15 20 8 5
-12 63 -1 125 24 15 6 29 9 31 7 2 -2 4 4 5 14 2 20 -36 31 -106 31 -31 0 -33
2 -29 30 l5 31 -104 -5 c-102 -4 -103 -4 -103 19 0 30 16 35 109 35 54 0 83 5
99 16 35 24 195 29 321 10 58 -9 110 -16 118 -16 10 0 13 31 13 145 0 141 -1
145 -19 133 -15 -9 -23 -9 -35 1 -20 17 -20 32 -2 57 13 16 18 17 35 6 21 -12
21 -10 21 78 0 70 -3 90 -14 90 -16 0 -25 19 -19 38 3 6 11 12 19 12 12 0 14
41 14 250 0 138 -3 250 -7 250 -11 0 -33 50 -33 73 0 10 9 21 20 24 16 4 20
14 20 49 l0 44 -750 0 -750 0 0 -226z m245 195 c10 -30 -16 -53 -49 -45 -45
11 -28 66 20 66 14 0 25 -8 29 -21z m793 5 c-5 -26 -35 -41 -55 -28 -10 6 -19
19 -21 28 -3 13 5 16 38 16 33 0 41 -3 38 -16z m226 1 c-4 -8 -10 -15 -14 -15
-4 0 -10 7 -14 15 -4 10 1 15 14 15 13 0 18 -5 14 -15z m116 0 c16 -19 6 -45
-18 -45 -15 0 -18 -6 -15 -23 9 -44 -48 -62 -64 -21 -4 11 2 24 17 36 17 14
20 21 11 31 -8 10 -7 17 1 25 17 17 53 15 68 -3z m60 5 c0 -5 -9 -10 -20 -10
-11 0 -20 5 -20 10 0 6 9 10 20 10 11 0 20 -4 20 -10z m-1295 -30 c-5 -8 -11
-8 -17 -2 -6 6 -7 16 -3 22 5 8 11 8 17 2 6 -6 7 -16 3 -22z m575 -10 c0 -27
-34 -44 -60 -30 -21 11 -25 27 -12 46 20 30 72 18 72 -16z m-240 4 c0 -15 -22
-44 -34 -44 -16 0 -29 27 -20 41 6 10 54 13 54 3z m724 -35 c-3 -5 -10 -7 -15
-3 -5 3 -7 10 -3 15 3 5 10 7 15 3 5 -3 7 -10 3 -15z m-1136 -10 c-2 -6 -8
-10 -13 -10 -5 0 -11 4 -13 10 -2 6 4 11 13 11 9 0 15 -5 13 -11z m482 -19 c0
-5 -4 -10 -10 -10 -5 0 -10 5 -10 10 0 6 5 10 10 10 6 0 10 -4 10 -10z m885 0
c3 -6 -1 -13 -10 -16 -19 -8 -30 0 -20 15 8 14 22 14 30 1z m-445 -10 c0 -5
-4 -10 -10 -10 -5 0 -10 5 -10 10 0 6 5 10 10 10 6 0 10 -4 10 -10z m80 2 c0
-13 -12 -22 -22 -16 -10 6 -1 24 13 24 5 0 9 -4 9 -8z m-846 -8 c21 -8 21 -53
0 -61 -10 -4 -14 -13 -10 -29 8 -31 -17 -54 -58 -54 -37 0 -60 19 -50 43 3 8
1 18 -5 22 -30 18 1 84 34 72 20 -8 30 -54 15 -72 -9 -10 -9 -15 -1 -15 6 0
11 5 11 10 0 6 8 10 17 10 13 0 14 3 5 12 -16 16 -15 33 4 52 18 18 17 18 38
10z m1086 -28 c0 -8 -4 -17 -9 -21 -12 -7 -24 12 -16 25 9 15 25 12 25 -4z
m-1010 -46 c0 -5 -7 -10 -15 -10 -8 0 -15 5 -15 10 0 6 7 10 15 10 8 0 15 -4
15 -10z m974 -9 c3 -5 -1 -14 -8 -20 -16 -13 -32 2 -21 19 8 12 22 13 29 1z
m201 -15 c19 -29 8 -61 -25 -71 -40 -13 -69 38 -43 74 19 28 49 26 68 -3z
m-136 -72 c28 -36 27 -40 -15 -42 -40 -3 -64 11 -64 38 0 37 51 39 79 4z
m-1215 7 c10 -16 -5 -41 -24 -41 -23 0 -32 13 -24 34 7 17 39 22 48 7z m61
-61 c4 -12 15 -20 28 -20 15 0 18 -3 10 -11 -8 -8 -19 -5 -42 12 -33 25 -40
39 -17 39 8 0 18 -9 21 -20z m120 -50 c4 -6 2 -17 -5 -25 -7 -9 -8 -15 0 -20
15 -9 12 -35 -6 -42 -24 -9 -38 11 -25 35 7 13 7 23 1 27 -13 8 -1 35 15 35 8
0 17 -5 20 -10z m1090 -37 c-6 -44 -18 -62 -37 -63 -13 0 -9 38 5 43 9 3 9 7
-2 20 -18 22 -7 47 20 47 20 0 21 -3 14 -47z m-165 22 c10 -13 9 -19 -5 -36
l-19 -20 -20 21 c-21 21 -21 21 -2 36 25 18 31 18 46 -1z m-1196 -176 c-3 -5
-10 -7 -15 -3 -5 3 -7 10 -3 15 3 5 10 7 15 3 5 -3 7 -10 3 -15z m1350 -55
c22 -22 20 -41 -8 -59 -47 -31 -81 11 -41 51 29 28 29 29 49 8z m-1342 -19 c0
-5 -5 -11 -11 -13 -6 -2 -11 4 -11 13 0 9 5 15 11 13 6 -2 11 -8 11 -13z
m1203 -155 c3 -5 -1 -10 -9 -10 -9 0 -16 5 -16 10 0 6 4 10 9 10 6 0 13 -4 16
-10z m175 -30 c0 -5 -2 -10 -4 -10 -3 0 -8 5 -11 10 -3 6 -1 10 4 10 6 0 11
-4 11 -10z m-1284 -51 l1 -46 -27 14 c-46 23 -56 40 -34 64 10 11 27 19 38 17
18 -3 21 -11 22 -49z m88 -54 c20 -8 36 -17 36 -19 0 -2 -21 -11 -47 -20 -42
-14 -49 -14 -62 -1 -13 13 -12 17 4 35 22 24 23 24 69 5z m520 -2 c41 -19 47
-29 35 -60 -12 -33 -56 -31 -65 2 -3 13 -15 27 -25 30 -31 10 -22 40 13 44 4
1 23 -6 42 -16z m123 1 c3 -8 -1 -22 -9 -30 -12 -12 -20 -13 -41 -3 -33 15
-34 23 -4 37 32 15 47 14 54 -4z m443 -10 c0 -16 -26 -19 -35 -4 -3 6 -4 14 0
20 8 13 35 1 35 -16z m-40 -36 c0 -4 -5 -8 -10 -8 -6 0 -10 -8 -8 -17 2 -14
-5 -19 -30 -21 -36 -4 -53 18 -33 42 12 15 81 18 81 4z m-970 -39 c0 -24 -23
-21 -28 4 -2 10 3 17 12 17 10 0 16 -9 16 -21z m293 1 c9 0 17 -7 17 -15 0
-18 -16 -19 -58 -4 -35 12 -33 34 2 25 11 -3 29 -6 39 -6z m817 -74 c0 -20
-27 -39 -45 -32 -25 9 -30 37 -10 52 20 15 55 2 55 -20z m-430 -24 c0 -14 -11
-21 -26 -15 -8 3 -11 9 -8 14 7 11 34 12 34 1z m-90 -15 c0 -17 -86 -84 -96
-75 -11 12 10 36 49 56 45 23 47 24 47 19z m177 -19 c-3 -8 -6 -5 -6 6 -1 11
2 17 5 13 3 -3 4 -12 1 -19z m-360 -22 c22 -4 31 -36 9 -36 -16 0 -66 48 -66
64 0 5 9 1 19 -8 11 -10 28 -19 38 -20z m-147 -66 c0 -5 0 -12 0 -15 0 -14
-13 -8 -16 8 -1 9 2 17 7 17 5 0 9 -4 9 -10z m44 -6 c9 -22 -3 -32 -14 -14
-12 19 -12 30 -1 30 5 0 12 -7 15 -16z m46 -14 c0 -11 -4 -20 -10 -20 -5 0
-10 9 -10 20 0 11 5 20 10 20 6 0 10 -9 10 -20z m46 -27 c-11 -11 -17 4 -9 23
7 18 8 18 11 1 2 -10 1 -21 -2 -24z"/>
        <path d="M696 1115 c7 -18 0 -19 -28 -4 -17 9 -23 8 -30 -5 -5 -9 -20 -16 -33
-16 -13 0 -27 -5 -31 -11 -3 -6 -16 -9 -29 -7 -16 3 -22 0 -21 -11 1 -11 -6
-15 -23 -13 -17 1 -22 -2 -17 -13 4 -10 -1 -15 -15 -15 -16 0 -19 -4 -14 -20
5 -16 2 -20 -14 -20 -22 0 -28 -14 -11 -25 17 -10 11 -25 -9 -25 -27 0 -36
-30 -11 -37 24 -6 16 -23 -11 -23 -10 0 -19 -4 -19 -10 0 -5 7 -10 15 -10 8 0
15 -4 15 -10 0 -5 -7 -10 -15 -10 -8 0 -15 -7 -15 -15 0 -8 7 -15 16 -15 14 0
14 -3 4 -15 -10 -12 -9 -15 5 -15 9 0 15 -6 13 -12 -10 -30 66 -72 157 -87 51
-8 102 -24 141 -45 l61 -32 44 28 c24 15 64 35 88 45 68 26 21 34 -63 10 -77
-21 -146 -18 -173 9 -9 9 -26 14 -40 11 -19 -4 -22 -1 -18 14 4 11 2 19 -3 19
-5 0 -12 8 -16 18 -3 9 -9 23 -12 30 -3 7 1 12 10 12 16 0 22 15 9 23 -5 2 -2
2 5 1 7 -2 33 2 58 8 31 9 47 9 52 2 4 -6 16 -14 27 -17 17 -6 17 -4 -4 13
-24 21 -23 50 3 50 8 0 36 -11 62 -25 46 -25 101 -37 62 -14 -10 5 -18 17 -18
25 0 12 3 12 21 2 17 -11 22 -10 32 3 7 9 22 19 34 23 19 6 22 4 16 -11 -6
-16 -5 -16 10 -4 9 7 17 20 17 27 0 37 59 -1 61 -39 1 -34 9 -91 14 -106 4
-11 9 -10 20 5 8 10 15 26 15 35 0 9 10 24 23 32 18 13 19 16 5 16 -11 1 -18
9 -18 20 0 10 -7 22 -16 25 -9 4 -14 13 -10 21 3 9 -3 20 -13 27 -11 6 -17 17
-14 24 2 7 -5 15 -16 19 -12 3 -21 12 -21 20 0 8 -9 17 -20 20 -11 3 -20 10
-20 15 0 4 -13 13 -29 18 -23 8 -28 15 -24 31 5 20 -11 30 -21 12 -3 -4 -30 0
-61 11 -30 10 -71 16 -90 14 -19 -3 -35 0 -35 5 0 5 -4 9 -10 9 -5 0 -7 -7 -4
-15z m137 -84 c15 -15 27 -14 27 4 0 20 39 4 91 -37 54 -43 52 -64 -7 -72 -81
-11 -83 -10 -90 34 -8 48 -30 48 -26 1 1 -17 -3 -31 -8 -31 -12 0 -31 44 -33
77 -2 17 -5 19 -19 12 -10 -5 -18 -8 -18 -5 0 2 -3 12 -6 21 -6 14 0 16 35 12
23 -2 47 -9 54 -16z m-189 -23 c31 -44 15 -86 -29 -80 -74 9 -85 13 -85 33 0
11 11 24 25 31 14 6 25 15 25 19 0 6 17 14 42 18 4 0 14 -9 22 -21z m78 -2
c11 -16 10 -56 -2 -56 -5 0 -10 8 -10 19 0 10 -7 24 -15 31 -8 7 -15 16 -15
21 0 11 33 -1 42 -15z m-194 -126 c10 -17 8 -19 -16 -17 -15 1 -28 9 -30 18
-4 22 32 21 46 -1z m62 -10 c0 -5 -2 -10 -4 -10 -3 0 -8 5 -11 10 -3 6 -1 10
4 10 6 0 11 -4 11 -10z m50 -10 c0 -5 -5 -10 -11 -10 -5 0 -7 5 -4 10 3 6 8
10 11 10 2 0 4 -4 4 -10z m-100 -69 c0 -5 -7 -12 -16 -15 -24 -9 -28 -7 -14 9
14 17 30 20 30 6z m18 -54 c2 -11 -3 -17 -16 -17 -26 0 -34 11 -20 27 14 17
32 12 36 -10z"/>
        <path d="M912 811 c-22 -6 -22 -7 -5 -21 10 -9 26 -14 36 -12 9 2 17 -1 17 -7
0 -5 -10 -11 -22 -13 -20 -3 -17 -7 23 -31 52 -31 69 -34 69 -12 0 8 -9 15
-19 15 -11 0 -23 5 -27 12 -5 8 0 9 14 6 12 -4 22 -2 22 3 0 5 -12 12 -26 15
-17 4 -22 9 -14 14 9 6 7 11 -9 19 -11 7 -21 8 -21 4 0 -4 -4 -3 -8 3 -4 6
-17 8 -30 5z"/>
        <path d="M925 724 c11 -11 25 -24 31 -31 6 -7 16 -8 24 -3 9 6 1 14 -31 30
-37 19 -41 19 -24 4z"/>
        <path d="M968 483 c6 -2 18 -2 25 0 6 3 1 5 -13 5 -14 0 -19 -2 -12 -5z"/>
        <path d="M41 69 c3 -22 -11 -49 -27 -49 -8 0 -14 -4 -14 -10 0 -16 287 -13
293 3 3 9 9 9 26 0 24 -15 41 -17 41 -4 0 14 -61 21 -108 12 -34 -7 -42 -6
-38 4 4 12 -48 25 -121 30 -12 1 -29 8 -38 15 -14 12 -16 12 -14 -1z"/>
        <path d="M1408 73 c-35 -9 -17 -20 37 -22 43 -1 55 2 55 14 0 11 -10 15 -37
14 -21 -1 -46 -3 -55 -6z"/>
    </g>

</svg>
